<?xml version="1.0" encoding="utf-8"?>
<!-- Generator: Adobe Illustrator 22.1.0, SVG Export Plug-In . SVG Version: 6.00 Build 0)  -->
<svg version="1.1" id="Layer_1" xmlns="http://www.w3.org/2000/svg" xmlns:xlink="http://www.w3.org/1999/xlink" x="0px" y="0px"
	 viewBox="0 0 24 24" style="enable-background:new 0 0 24 24;" xml:space="preserve">
<style type="text/css">
	.st0{fill:#FFFFFF;}
</style>
<path class="st0" d="M10.9,5.1h2.3v8h-2.3V5.1 M8.6,21.2c0,0.6-0.5,1.1-1.1,1.1H4c-0.6,0-1.1-0.5-1.1-1.1v-5.7L5.1,5.1h4.6v8
	c0,0.6-0.5,1.1-1.1,1.1V21.2 M9.7,4H6.3V1.7h3.4V4 M15.4,21.2v-6.9c-0.6,0-1.1-0.5-1.1-1.1v-8h4.6l2.3,10.3v5.7
	c0,0.6-0.5,1.1-1.1,1.1h-3.4C16,22.3,15.4,21.8,15.4,21.2 M14.3,4V1.7h3.4V4H14.3z"/>
</svg>
