<?xml version="1.0" encoding="utf-8"?>
<svg version="1.1" id="Layer_1" xmlns="http://www.w3.org/2000/svg" xmlns:xlink="http://www.w3.org/1999/xlink" x="0px" y="0px"
	 viewBox="0 0 24 24" style="enable-background:new 0 0 24 24;" xml:space="preserve">
<style type="text/css">
	.st0{fill:#FFFFFF;}
</style>
<path class="st0" d="M20,11H4V8h16 M20,15h-7v-2h7 M20,19h-7v-2h7 M11,19H4v-6h7 M20.3,4.7L18.7,3L17,4.7L15.3,3l-1.7,1.7L12,3
	l-1.7,1.7L8.7,3L7,4.7L5.3,3L3.7,4.7L2,3v16c0,1.1,0.9,2,2,2h16c1.1,0,2-0.9,2-2V3L20.3,4.7z"/>
</svg>
